<svg width="31" height="30" viewBox="0 0 31 30" fill="none" xmlns="http://www.w3.org/2000/svg">
<path d="M18.2412 2.5H8.24121C7.57817 2.5 6.94228 2.76339 6.47344 3.23223C6.0046 3.70107 5.74121 4.33696 5.74121 5V25C5.74121 25.663 6.0046 26.2989 6.47344 26.7678C6.94228 27.2366 7.57817 27.5 8.24121 27.5H23.2412C23.9043 27.5 24.5401 27.2366 25.009 26.7678C25.4778 26.2989 25.7412 25.663 25.7412 25V10L18.2412 2.5ZM12.5487 21.765C12.8925 21.765 13.275 21.6888 13.5012 21.6L13.6737 22.4913C13.4637 22.5963 12.9912 22.7087 12.3775 22.7087C10.6312 22.7087 9.73121 21.6225 9.73121 20.1825C9.72996 18.46 10.96 17.5 12.4887 17.5C13.0812 17.5 13.53 17.62 13.7325 17.725L13.5 18.6325C13.1955 18.5072 12.8692 18.4439 12.54 18.4462C11.6325 18.4462 10.9275 18.9937 10.9275 20.1175C10.9287 21.1275 11.53 21.765 12.5487 21.765V21.765ZM15.6625 22.7087C15.0862 22.7087 14.5162 22.56 14.2312 22.4025L14.4637 21.4575C14.7712 21.615 15.2437 21.7725 15.7312 21.7725C16.2562 21.7725 16.5337 21.555 16.5337 21.225C16.5337 20.91 16.2937 20.73 15.6862 20.5125C14.8462 20.22 14.3 19.7563 14.3 19.0213C14.3 18.16 15.0187 17.5 16.2112 17.5C16.78 17.5 17.2 17.62 17.5 17.7538L17.245 18.6762C16.9154 18.5166 16.5537 18.4345 16.1875 18.4362C15.6925 18.4362 15.4537 18.6625 15.4537 18.9237C15.4537 19.2462 15.7387 19.3887 16.39 19.6362C17.2825 19.9662 17.7025 20.4312 17.7025 21.1425C17.7012 21.99 17.0487 22.7087 15.6625 22.7087V22.7087ZM19.7125 22.7087C19.1362 22.7087 18.5662 22.56 18.2812 22.4025L18.5137 21.4575C18.8212 21.615 19.2937 21.7725 19.7812 21.7725C20.3062 21.7725 20.5837 21.555 20.5837 21.225C20.5837 20.91 20.3437 20.73 19.7362 20.5125C18.8962 20.22 18.35 19.7563 18.35 19.0213C18.35 18.16 19.0687 17.5 20.2612 17.5C20.83 17.5 21.25 17.62 21.55 17.7538L21.295 18.6762C20.9654 18.5166 20.6037 18.4345 20.2375 18.4362C19.7425 18.4362 19.5037 18.6625 19.5037 18.9237C19.5037 19.2462 19.7887 19.3887 20.44 19.6362C21.3325 19.9662 21.7525 20.4312 21.7525 21.1425C21.7525 21.99 21.0987 22.7087 19.7125 22.7087V22.7087ZM18.2412 11.25H16.9912V5L23.2412 11.25H18.2412Z" fill="black"/>
</svg>
