<svg width="29" height="26" viewBox="0 0 29 26" fill="none" xmlns="http://www.w3.org/2000/svg">
<path d="M7.68746 9.25C4.39121 10.1 2.24121 11.5563 2.24121 13.2188C2.24121 15.8525 7.74746 18 14.5537 18C15.4787 18 16.1287 17.9512 16.9912 17.8787" stroke="#47C5FB" stroke-width="2.5" stroke-linecap="round" stroke-linejoin="round"/>
<path d="M12.0374 17.875C11.5211 17.13 11.0299 16.4588 10.5624 15.625C7.12361 9.50003 6.20236 3.41253 8.52486 2.03378C9.96236 1.16253 12.3336 2.35003 14.7424 4.85128" stroke="#47C5FB" stroke-width="2.5" stroke-linecap="round" stroke-linejoin="round"/>
<path d="M7.77712 17.2338C6.89962 20.5938 7.07712 23.1287 8.47712 23.9775C10.7059 25.3275 15.2109 21.53 18.5309 15.4725C18.9809 14.635 19.3846 13.8112 19.7409 13" stroke="#47C5FB" stroke-width="2.5" stroke-linecap="round" stroke-linejoin="round"/>
<path d="M14.7412 21.15C17.1512 23.65 19.5125 24.8375 20.9637 23.9663C23.2762 22.5888 22.365 16.5012 18.9225 10.375C18.4425 9.52875 17.9512 8.87 17.4475 8.125" stroke="#47C5FB" stroke-width="2.5" stroke-linecap="round" stroke-linejoin="round"/>
<path d="M21.8162 16.75C25.0812 15.8913 27.2412 14.4375 27.2412 12.78C27.2412 10.1425 21.7312 8 14.935 8C14.0012 8 13.3525 8.03625 12.4912 8.10875" stroke="#47C5FB" stroke-width="2.5" stroke-linecap="round" stroke-linejoin="round"/>
<path d="M9.74121 12.9999C10.0975 12.1749 10.5 11.3649 10.9512 10.5274C14.26 4.47244 18.7675 0.664943 21.0087 2.02619C22.3962 2.87494 22.5862 5.40869 21.7087 8.76744M15.0662 13.0187H15.0537C15.0412 13.1812 14.9037 13.3187 14.7287 13.3187C14.645 13.3146 14.5661 13.2786 14.508 13.2182C14.4499 13.1578 14.4171 13.0775 14.4162 12.9937C14.4162 12.8187 14.5537 12.6812 14.7162 12.6812H14.7037C14.8662 12.6687 15.0162 12.8187 15.0162 12.9812" stroke="#47C5FB" stroke-width="2.5" stroke-linecap="round" stroke-linejoin="round"/>
</svg>
