<svg width="35" height="30" viewBox="0 0 35 30" fill="none" xmlns="http://www.w3.org/2000/svg">
<path d="M28.5184 9.71366C28.1599 9.59067 27.7984 9.47673 27.4342 9.37195C27.4953 9.12195 27.5517 8.87498 27.6017 8.63235C28.4225 4.648 27.8859 1.43813 26.0531 0.381293C24.2959 -0.631865 21.4221 0.424582 18.5197 2.9505C18.2336 3.19989 17.954 3.45646 17.6809 3.71998C17.4981 3.54475 17.312 3.37292 17.1228 3.20458C14.081 0.503793 11.0321 -0.634497 9.20127 0.425372C7.44561 1.44169 6.92574 4.45919 7.66469 8.23524C7.73821 8.60922 7.82122 8.98127 7.91364 9.35103C7.48206 9.47366 7.06561 9.60419 6.66706 9.74313C3.10074 10.9866 0.823242 12.9351 0.823242 14.9563C0.823242 17.0438 3.26824 19.1376 6.98272 20.4072C7.28386 20.5097 7.5875 20.6047 7.89337 20.6921C7.79404 21.0903 7.70584 21.4913 7.6289 21.8945C6.92443 25.605 7.47456 28.5512 9.22548 29.561C11.0339 30.6039 14.0692 29.5321 17.0246 26.9485C17.2642 26.7385 17.4986 26.5225 17.7275 26.3008C18.0232 26.5861 18.3268 26.8631 18.638 27.1316C21.5009 29.595 24.3282 30.5897 26.0775 29.5771C27.8842 28.5312 28.4714 25.3662 27.709 21.5155C27.649 21.2138 27.5816 20.9137 27.5071 20.6152C27.7202 20.5521 27.9294 20.4871 28.1334 20.4195C31.995 19.1401 34.5075 17.0717 34.5075 14.9563C34.5075 12.9277 32.1564 10.966 28.5184 9.71366V9.71366ZM27.6809 19.0537C27.4967 19.1146 27.3077 19.1734 27.1151 19.2306C26.6888 17.881 26.1135 16.446 25.4094 14.9633C26.0813 13.5159 26.6344 12.0992 27.0488 10.7584C27.3934 10.8581 27.7277 10.9633 28.0501 11.0742C31.1672 12.1473 33.0685 13.7338 33.0685 14.9563C33.0685 16.2584 31.0151 17.9488 27.6809 19.0537V19.0537ZM26.2975 21.795C26.6346 23.4976 26.6826 25.0371 26.4593 26.2406C26.2588 27.3221 25.8553 28.043 25.3564 28.3318C24.295 28.9463 22.0248 28.1476 19.5765 26.0408C19.2871 25.7912 19.0047 25.5337 18.7296 25.2684C19.6788 24.2304 20.6273 23.0237 21.5531 21.6834C23.1815 21.5389 24.72 21.3026 26.1151 20.9801C26.1823 21.2503 26.2431 21.522 26.2975 21.795V21.795ZM12.3069 28.2256C11.2698 28.5918 10.4438 28.6023 9.94443 28.3145C8.88193 27.7017 8.44022 25.336 9.04272 22.1629C9.11434 21.7879 9.19634 21.415 9.28864 21.0446C10.6684 21.3498 12.1956 21.5693 13.8278 21.7017C14.76 23.0131 15.7359 24.2185 16.7194 25.2741C16.5104 25.4763 16.2964 25.6734 16.0777 25.8651C14.7707 27.0075 13.4611 27.818 12.3069 28.2256V28.2256ZM7.44824 19.0456C5.80574 18.4842 4.4493 17.7546 3.51956 16.9584C2.68403 16.243 2.26232 15.5326 2.26232 14.9563C2.26232 13.7297 4.09087 12.1652 7.14074 11.102C7.51087 10.973 7.89824 10.8513 8.30022 10.7371C8.7218 12.1081 9.27469 13.5417 9.94193 14.9913C9.26601 16.4623 8.70522 17.9188 8.27956 19.306C8.00036 19.2261 7.72317 19.1392 7.44824 19.0456V19.0456ZM9.07693 7.95879C8.4439 4.72366 8.8643 2.28327 9.92232 1.67077C11.0492 1.0184 13.541 1.94853 16.1675 4.28064C16.3387 4.43305 16.5072 4.58856 16.6728 4.74708C15.6942 5.798 14.7272 6.99445 13.8034 8.29814C12.2192 8.44498 10.7027 8.68077 9.30851 8.99669C9.22261 8.65277 9.14539 8.30674 9.07693 7.95892V7.95879ZM23.6068 11.5467C23.2775 10.9779 22.936 10.4162 22.5825 9.86208C23.6572 9.998 24.6869 10.1784 25.6539 10.3989C25.3636 11.3295 25.0018 12.3022 24.5759 13.2996C24.2646 12.7089 23.9415 12.1245 23.6068 11.5467V11.5467ZM17.6815 5.7755C18.3452 6.49458 19.01 7.29735 19.6638 8.1684C18.3375 8.10576 17.0089 8.1055 15.6826 8.16761C16.3371 7.30458 17.0075 6.50287 17.6815 5.7755ZM11.7182 11.5566C11.3878 12.1297 11.0707 12.7105 10.7673 13.2984C10.3484 12.3046 9.98982 11.3273 9.69706 10.3837C10.6581 10.1687 11.683 9.99287 12.7509 9.85945C12.3934 10.4169 12.0491 10.9828 11.7182 11.5564V11.5566ZM12.7815 20.1555C11.6782 20.0323 10.638 19.8656 9.67719 19.6564C9.97456 18.6959 10.341 17.6979 10.769 16.6827C11.0736 17.2711 11.392 17.8522 11.7239 18.4256C12.0652 19.0151 12.4186 19.5925 12.7815 20.1555ZM17.7213 24.2384C17.0392 23.5026 16.3589 22.6885 15.6946 21.813C16.3396 21.8383 16.9971 21.8512 17.6653 21.8512C18.3519 21.8512 19.0306 21.8358 19.6986 21.806C19.0427 22.6973 18.3805 23.5126 17.7213 24.2384ZM24.5894 16.6309C25.0397 17.6572 25.4192 18.65 25.7205 19.5941C24.7439 19.817 23.6894 19.9964 22.5784 20.1297C22.9344 19.5653 23.2792 18.9939 23.6125 18.4158C23.9513 17.8281 24.2771 17.233 24.5894 16.6309V16.6309ZM22.366 17.6968C21.8558 18.5832 21.3168 19.4527 20.7501 20.3041C19.7235 20.3768 18.6946 20.4129 17.6653 20.4123C16.6171 20.4123 15.5975 20.3797 14.6156 20.316C14.0341 19.4667 13.4849 18.5956 12.9692 17.7047H12.9693C12.456 16.8185 11.9766 15.9132 11.5321 14.9906C11.9755 14.0679 12.4534 13.1621 12.965 12.2752L12.9648 12.2754C13.4761 11.3883 14.021 10.521 14.5981 9.67524C15.5998 9.59945 16.6271 9.55998 17.6652 9.55998H17.6653C18.7082 9.55998 19.7368 9.59985 20.7382 9.67616C21.3096 10.5206 21.8509 11.385 22.3613 12.2676C22.8745 13.1525 23.3588 14.0539 23.8134 14.9702C23.3634 15.896 22.8807 16.8054 22.366 17.6968V17.6968ZM25.3344 1.62787C26.4623 2.2784 26.901 4.90169 26.1923 8.34182C26.1471 8.56129 26.0963 8.78485 26.041 9.01156C24.6434 8.68892 23.1259 8.44906 21.5371 8.29998C20.6115 6.98195 19.6525 5.78366 18.6897 4.74629C18.942 4.50307 19.2003 4.26616 19.4644 4.03577C21.9513 1.87169 24.2755 1.01721 25.3344 1.62787V1.62787ZM17.6653 11.9484C19.3265 11.9484 20.6732 13.2951 20.6732 14.9563C20.6732 16.6175 19.3265 17.9642 17.6653 17.9642C16.0042 17.9642 14.6575 16.6175 14.6575 14.9563C14.6575 13.2951 16.0042 11.9484 17.6653 11.9484V11.9484Z" fill="#00D8FF"/>
</svg>
