<svg width="31" height="30" viewBox="0 0 31 30" fill="none" xmlns="http://www.w3.org/2000/svg">
<g clip-path="url(#clip0_1890_383)">
<path d="M7.17852 0H23.7957C24.6043 0 25.3895 0.128906 26.1512 0.398438C27.2527 0.796875 28.2488 1.5 28.9988 2.41406C29.7605 3.32813 30.2645 4.45312 30.4402 5.625C30.5105 6.05859 30.5223 6.49219 30.5223 6.92578V23.1328C30.5223 23.6484 30.4988 24.1758 30.3934 24.6797C30.159 25.8398 29.6082 26.9297 28.8113 27.8086C28.0262 28.6875 26.9949 29.3437 25.8816 29.6953C25.202 29.9062 24.4988 30 23.784 30C23.4676 30 7.13164 30 6.88555 29.9883C5.69024 29.9297 4.50664 29.543 3.51055 28.875C2.53789 28.2187 1.74102 27.3047 1.22539 26.25C0.78008 25.3477 0.557423 24.3398 0.557423 23.332V6.66797C0.533986 5.67188 0.744923 4.6875 1.17852 3.79688C1.68242 2.74219 2.46758 1.81641 3.44024 1.16016C4.43633 0.480469 5.6082 0.0820313 6.80352 0.0234375C6.9207 0 7.04961 0 7.17852 0V0Z" fill="url(#paint0_linear_1890_383)"/>
<path d="M25.8232 24.5391C25.7178 24.375 25.6006 24.2109 25.4717 24.0586C25.1787 23.707 24.8389 23.4023 24.4639 23.1445C23.9951 22.8281 23.4443 22.6289 22.8818 22.6055C22.4834 22.582 22.085 22.6523 21.71 22.793C21.335 22.9219 20.9717 23.1094 20.6201 23.2969C20.21 23.5078 19.7998 23.7187 19.3662 23.8945C18.8506 24.1055 18.3115 24.2695 17.7607 24.3867C17.0693 24.5156 16.3662 24.5625 15.6748 24.5508C14.4209 24.5273 13.167 24.3398 11.9717 23.9883C10.917 23.6719 9.90918 23.2383 8.95996 22.6875C8.12793 22.207 7.35449 21.6563 6.62793 21.0352C6.03027 20.5195 5.47949 19.9687 4.96387 19.3828C4.6123 18.9727 4.27246 18.5391 3.95605 18.0937C3.82715 17.918 3.70996 17.7305 3.60449 17.543L0.510742 14.2031V6.64453C0.510742 2.97656 3.47559 0 7.14355 0H13.0615L17.4443 4.45312C27.335 11.1797 24.1357 18.5977 24.1357 18.5977C24.1357 18.5977 26.9482 21.7617 25.8232 24.5391V24.5391Z" fill="url(#paint1_linear_1890_383)"/>
<path d="M17.4678 4.45312C27.3584 11.1797 24.1592 18.5977 24.1592 18.5977C24.1592 18.5977 26.9717 21.7734 25.835 24.5508C25.835 24.5508 24.6748 22.6055 22.7295 22.6055C20.8545 22.6055 19.7529 24.5508 15.9795 24.5508C7.57715 24.5508 3.60449 17.5313 3.60449 17.5313C11.1748 22.5117 16.3428 18.9844 16.3428 18.9844C12.9326 17.0039 5.67871 7.53516 5.67871 7.53516C11.9951 12.9141 14.7256 14.332 14.7256 14.332C13.0967 12.9844 8.52637 6.39844 8.52637 6.39844C12.1826 10.1016 19.4482 15.2695 19.4482 15.2695C21.5107 9.55078 17.4678 4.45312 17.4678 4.45312Z" fill="white"/>
</g>
<defs>
<linearGradient id="paint0_linear_1890_383" x1="18.3572" y1="-1.07051" x2="12.6891" y2="31.0741" gradientUnits="userSpaceOnUse">
<stop stop-color="#FAAE42"/>
<stop offset="1" stop-color="#EF3E31"/>
</linearGradient>
<linearGradient id="paint1_linear_1890_383" x1="15.8168" y1="0.484688" x2="11.6685" y2="24.0109" gradientUnits="userSpaceOnUse">
<stop stop-color="#E39F3A"/>
<stop offset="1" stop-color="#D33929"/>
</linearGradient>
<clipPath id="clip0_1890_383">
<rect width="30" height="30" fill="white" transform="translate(0.510742)"/>
</clipPath>
</defs>
</svg>
