<svg width="31" height="30" viewBox="0 0 31 30" fill="none" xmlns="http://www.w3.org/2000/svg">
<path d="M6.74121 24V21H3.74121V24H2.24121V16.5H3.74121V19.5H6.74121V16.5H8.24121V24H6.74121ZM11.2412 24V18H9.14121V16.5H14.6912V18H12.7412V24H11.2412ZM15.7412 24V16.5H17.2412L19.3412 21.6H19.4912L21.7412 16.5H23.2412V24H21.7412V19.35H21.5912L19.9412 23.1H19.0412L17.3912 19.35H17.2412V24H15.7412ZM29.2412 24H24.7412V16.5H26.2412V22.5H29.2412V24ZM14.8412 6.3L11.3912 9.75L14.8412 13.2L13.9412 15L8.69121 9.75L13.9412 4.5L14.8412 6.3ZM16.6412 13.2L20.0912 9.75L16.6412 6.3L17.5412 4.5L22.7912 9.75L17.5412 15L16.6412 13.2V13.2Z" fill="black"/>
</svg>
