<svg width="31" height="30" viewBox="0 0 31 30" fill="none" xmlns="http://www.w3.org/2000/svg">
<path d="M15.5286 -0.000106235C17.9634 -0.000106235 20.2559 0.568722 22.4065 1.67064L22.6908 1.8129L22.442 2.00837C21.8378 2.48825 21.3579 3.11028 21.0557 3.82114L20.9669 4.01661L20.7892 3.92778C19.1363 3.14579 17.3768 2.73704 15.5462 2.73704C8.77492 2.73704 3.28328 8.2465 3.28328 15C3.28328 21.7535 8.75711 27.2631 15.5286 27.2631C22.2999 27.2631 27.7915 21.7536 27.7915 15C27.7915 13.3828 27.4894 11.801 26.8496 10.3081L26.7607 10.1126L26.9562 10.0238C27.6849 9.75716 28.3247 9.3129 28.8401 8.74407L29.0356 8.49528L29.16 8.7797C30.0665 10.7524 30.5107 12.8496 30.5107 14.9645C30.5107 23.2287 23.7749 29.9645 15.5107 29.9645C7.24656 29.9645 0.510742 23.2287 0.510742 14.9646C0.510742 6.70056 7.24656 -0.0353797 15.5286 -0.000106235ZM15.5286 8.17536C19.2786 8.17536 22.3532 11.2323 22.3709 15.0178C22.3709 18.8033 19.3141 21.8603 15.5286 21.8603C11.7429 21.8603 8.68609 18.8033 8.68609 15.0178C8.68609 11.2323 11.7607 8.17536 15.5286 8.17536V8.17536ZM25.3212 2.52376C27.0487 2.52376 28.4492 3.92415 28.4492 5.65173C28.4492 7.37919 27.0488 8.7797 25.3212 8.7797C23.5936 8.7797 22.1932 7.37931 22.1932 5.65173C22.1932 3.92415 23.5936 2.52376 25.3212 2.52376V2.52376Z" fill="#3880FF"/>
</svg>
