<svg width="31" height="30" viewBox="0 0 31 30" fill="none" xmlns="http://www.w3.org/2000/svg">
<path d="M4.55172 20.4348H6.64703V12.1998H4.55266V20.4348H4.55172ZM5.60172 8.76758C4.90797 8.76758 4.43359 9.25789 4.43359 9.90008C4.43359 10.5254 4.88922 11.0157 5.58297 11.0157C6.30953 11.0157 6.76703 10.5254 6.76703 9.90008C6.74828 9.25789 6.30766 8.76758 5.59891 8.76758H5.60172ZM13.7861 8.85195C10.5733 8.85195 8.37672 11.3204 8.37672 14.821C8.37672 18.1679 10.4045 20.6195 13.6173 20.6195C16.7627 20.6195 19.0792 18.4388 19.0792 14.6176C19.0792 11.371 17.118 8.85195 13.787 8.85195H13.7861ZM13.7345 18.947C11.7395 18.947 10.5723 17.1038 10.5723 14.7873C10.5723 12.437 11.6711 10.5263 13.7345 10.5263C15.8139 10.5263 16.8789 12.5551 16.8789 14.7029C16.8789 17.0879 15.7473 18.947 13.7345 18.947ZM24.8298 13.8066C23.3092 13.216 22.6492 12.8091 22.6492 11.9298C22.6492 11.2707 23.223 10.561 24.543 10.561C25.6089 10.561 26.3992 10.8816 26.808 11.101L27.3142 9.42852C26.7123 9.12383 25.8114 8.85383 24.5655 8.85383C22.097 8.85383 20.5408 10.2741 20.5408 12.1351C20.5408 13.7757 21.7408 14.7713 23.6186 15.4482C25.0736 15.9732 25.6455 16.4795 25.6455 17.342C25.6455 18.272 24.8983 18.8982 23.5577 18.8982C22.4917 18.8982 21.4764 18.5607 20.8033 18.1707L20.3495 19.8957C20.9758 20.2679 22.2264 20.6082 23.4245 20.6082C26.3683 20.6082 27.752 19.0238 27.752 17.191C27.7736 15.5504 26.8098 14.5529 24.8298 13.8085V13.8066Z" fill="black"/>
</svg>
