<svg width="27" height="28" viewBox="0 0 27 28" fill="none" xmlns="http://www.w3.org/2000/svg">
<path d="M0.115234 0.875H26.3652V27.125H0.115234V0.875Z" fill="#F5DE19"/>
<path d="M17.7486 21.3828C17.9722 21.8371 18.3197 22.2189 18.751 22.4843C19.1822 22.7497 19.6797 22.8878 20.1861 22.8828C21.2079 22.8828 21.8614 22.3718 21.8614 21.664C21.8614 20.8203 21.1901 20.5184 20.0651 20.0262L19.4482 19.7618C17.667 19.0034 16.4857 18.0537 16.4857 16.0456C16.4857 14.1959 17.892 12.7868 20.0979 12.7868C20.812 12.7352 21.5255 12.8951 22.1494 13.2463C22.7732 13.5976 23.2799 14.1248 23.6061 14.7621L21.6776 15.9949C21.552 15.6789 21.3333 15.4086 21.0505 15.2197C20.7677 15.0308 20.4342 14.9324 20.0942 14.9374C19.9458 14.9226 19.796 14.9388 19.6543 14.9851C19.5125 15.0313 19.382 15.1066 19.271 15.2061C19.1599 15.3055 19.0708 15.4271 19.0093 15.5629C18.9479 15.6987 18.9153 15.8459 18.9139 15.9949C18.9139 16.7346 19.3723 17.0346 20.4307 17.4949L21.0476 17.7593C23.1439 18.6584 24.3289 19.5743 24.3289 21.634C24.3289 23.8549 22.5842 25.0718 20.2414 25.0718C19.3285 25.13 18.4184 24.9227 17.6207 24.4751C16.823 24.0274 16.172 23.3585 15.7461 22.549L17.7486 21.3828ZM9.03449 21.5965C9.42168 22.2837 9.77418 22.8649 10.6217 22.8649C11.4317 22.8649 11.9436 22.5481 11.9436 21.3153V12.9274H14.4101V21.3481C14.4101 23.9018 12.9101 25.0643 10.7267 25.0643C9.95488 25.1065 9.18839 24.9142 8.52795 24.5126C7.86751 24.111 7.34404 23.519 7.02637 22.8143L9.03449 21.5965Z" fill="black"/>
</svg>
