<svg width="34" height="30" viewBox="0 0 34 30" fill="none" xmlns="http://www.w3.org/2000/svg">
<path d="M9.85206 0C8.94232 0.00197368 8.05179 0.518421 7.5939 1.30618L0.471003 13.6793C0.0200822 14.4692 0.0200822 15.5017 0.471003 16.2916L7.5939 28.6649C8.05179 29.4526 8.94232 29.9692 9.85206 29.9711H24.0978C25.0076 29.9691 25.8981 29.4526 26.356 28.6649L33.4789 16.2916C33.9298 15.5017 33.9297 14.4692 33.4789 13.6793L26.356 1.30618C25.8981 0.51829 25.0076 0.00184211 24.0978 0H9.85206ZM9.9814 7.23855C10.001 7.23658 10.0215 7.23658 10.0411 7.23855H12.4982C12.5528 7.24032 12.6061 7.25587 12.6531 7.28376C12.7001 7.31164 12.7392 7.35095 12.7669 7.39803L16.9352 14.8259C16.9563 14.8628 16.9697 14.9036 16.9747 14.9457C16.98 14.9036 16.9934 14.8628 17.0144 14.8259L21.1727 7.39803C21.2014 7.34961 21.2421 7.30946 21.2909 7.2815C21.3398 7.25355 21.395 7.23875 21.4513 7.23855H23.9085C24.126 7.2404 24.289 7.51447 24.1871 7.70711L20.1182 14.9855L24.1871 22.2539C24.2986 22.4476 24.1318 22.7343 23.9085 22.7325H21.4513C21.394 22.7313 21.3381 22.715 21.2892 22.6852C21.2403 22.6555 21.2001 22.6133 21.1727 22.563L17.0144 15.135C16.9934 15.0982 16.9799 15.0575 16.9748 15.0154C16.9697 15.0575 16.9562 15.0982 16.9352 15.1351L12.7668 22.563C12.7403 22.6119 12.7017 22.6531 12.6547 22.6828C12.6077 22.7125 12.5539 22.7296 12.4984 22.7325H10.041C9.81771 22.7345 9.65087 22.4476 9.76245 22.2539L13.8313 14.9855L9.76245 7.70711C9.66495 7.53132 9.7839 7.27605 9.98127 7.23855H9.9814Z" fill="#3498DB"/>
</svg>
